<?xml version="1.0" encoding="iso-8859-1"?>
<!-- Generator: Adobe Illustrator 19.0.0, SVG Export Plug-In . SVG Version: 6.00 Build 0)  -->
<svg version="1.1" id="Capa_1" xmlns="http://www.w3.org/2000/svg" xmlns:xlink="http://www.w3.org/1999/xlink" x="0px" y="0px"
	 viewBox="0 0 479.821 479.821" style="enable-background:new 0 0 479.821 479.821;" xml:space="preserve">
<path style="fill:#E6E6E6;" d="M143.814,28.74c116.751-53.182,254.51-1.649,307.692,115.102s1.649,254.51-115.102,307.692
	s-254.51,1.649-307.692-115.102c-44.265-97.175-16.58-212.011,67.102-278.34"/>
<path style="fill:#CCCCCC;" d="M311.814,373.9c73.956-39.805,101.64-132.025,61.836-205.981c-1.819-3.38-3.766-6.69-5.836-9.923
	l-16.248-25.744l-46.504,164l-8.248,84.504L311.814,373.9z"/>
<path style="fill:#603813;" d="M307.814,376.004c11.408-19.664,18.168-44.736,14.88-63.064
	c-4.912-27.223,2.577-55.217,20.424-76.352l2.696-3.2c10.842-12.798,18.009-28.298,20.736-44.848
	c6.864-41.56-24.576-91.64-62.736-108.536c-25.48-11.28-71.48-13.232-96,0c-50.456,27.2-84.8,79.256-96,136
	c-3.936,19.92,1.952,68.632,8,88l8.744,30.592c7.736,28.366,25.268,53.075,49.488,69.744c4.704,3.21,9.718,5.938,14.968,8.144
	c26.6,10.768,71.936,4.872,94.8-12.48C295.963,393.366,302.754,385.216,307.814,376.004"/>
<circle style="fill:#F7931E;" cx="107.814" cy="124.004" r="36"/>
<circle style="fill:#FBB03B;" cx="75.814" cy="188.004" r="36"/>
<path style="fill:#39B54A;" d="M167.814,110.676c-46.195-7.808-80.007-47.821-80-94.672c46.851-0.007,86.864,33.805,94.672,80"/>
<g>
	<circle style="fill:#009245;" cx="87.814" cy="256.004" r="16"/>
	<circle style="fill:#009245;" cx="95.814" cy="288.004" r="16"/>
	<circle style="fill:#009245;" cx="103.814" cy="328.004" r="16"/>
	<circle style="fill:#009245;" cx="63.814" cy="280.004" r="16"/>
</g>
<path d="M239.814,0.004c-34.265-0.082-68.144,7.237-99.32,21.456c-0.232,0.104-0.376,0.304-0.6,0.432
	c-15.838-9.126-33.801-13.916-52.08-13.888c-4.418,0-8,3.582-8,8c0.007,13.288,2.554,26.452,7.504,38.784
	C-14.921,139.062-29.484,290.261,54.791,392.5s235.474,116.802,337.713,32.527s116.802-235.474,32.527-337.713
	C379.437,32.002,311.497-0.025,239.814,0.004L239.814,0.004z M173.822,93.652c-3.128,2.624-6.16,5.36-9.128,8.2
	c-37.26-8.15-64.961-39.478-68.488-77.456C134.47,27.953,165.945,56.039,173.822,93.652z M330.622,311.524
	c-4.537-24.874,2.309-50.472,18.656-69.76l2.696-3.2c11.774-13.909,19.559-30.748,22.528-48.728c0-0.232,0.04-0.48,0.072-0.72
	c22.717,60.18,2.766,128.127-48.88,166.472c5.133-14.085,6.812-29.196,4.896-44.064H330.622z M358.71,187.26
	c-2.493,15.121-9.04,29.282-18.944,40.976l-2.696,3.2c-19.441,22.929-27.587,53.361-22.2,82.936
	c1.633,20.194-3.245,40.38-13.92,57.6c-4.532,8.297-10.622,15.642-17.936,21.632c-20.592,15.64-62.856,21.2-86.968,11.44
	c-4.744-2.002-9.276-4.473-13.528-7.376c-22.642-15.617-39.023-38.746-46.24-65.288l-8.8-30.784
	c-5.6-18.008-11.48-65.408-7.792-84.064c9.939-54.908,43.57-102.646,91.928-130.488c13-5.935,27.208-8.746,41.488-8.208
	c16.223-0.27,32.345,2.61,47.472,8.48c36.376,16.104,64.04,63.736,58.104,99.944H358.71z M95.814,280.004c4.418,0,8,3.582,8,8
	s-3.582,8-8,8s-8-3.582-8-8S91.396,280.004,95.814,280.004z M79.814,256.004c0-4.418,3.582-8,8-8s8,3.582,8,8s-3.582,8-8,8
	S79.814,260.422,79.814,256.004z M103.814,320.004c4.418,0,8,3.582,8,8s-3.582,8-8,8s-8-3.582-8-8S99.396,320.004,103.814,320.004z
	 M75.814,216.004c-15.464,0-28-12.536-28-28s12.536-28,28-28c3.282,0.027,6.533,0.639,9.6,1.808
	c1.951,1.164,3.989,2.175,6.096,3.024c12.795,8.684,16.128,26.097,7.444,38.892C93.748,211.398,85.084,215.994,75.814,216.004z
	 M107.814,152.004c-3.282-0.027-6.533-0.639-9.6-1.808c-1.951-1.164-3.989-2.175-6.096-3.024
	c-12.564-9.016-15.441-26.509-6.425-39.073c8.651-12.055,25.204-15.269,37.737-7.327l0.136,0.104
	c12.773,8.717,16.062,26.137,7.345,38.911C125.701,147.422,117.058,151.994,107.814,152.004z M119.398,166.404
	c-0.872,1.936-1.736,3.864-2.56,5.832c-0.624-1.643-1.348-3.246-2.168-4.8C116.265,167.183,117.843,166.838,119.398,166.404z
	 M150.774,114.58c0.448,0.152,0.904,0.28,1.36,0.424c-0.36,0.408-0.696,0.8-1.048,1.248
	C151.014,115.692,150.894,115.132,150.774,114.58z M239.814,464.004C116.138,464.04,15.848,363.811,15.811,240.134
	c-0.02-65.658,28.777-128.016,78.771-170.579c2.28,3.776,4.799,7.403,7.544,10.856c-24.058,3.098-41.049,25.111-37.952,49.169
	c0.676,5.252,2.297,10.339,4.784,15.015c-24.021,3.674-40.516,26.126-36.842,50.147s26.126,40.516,50.147,36.842
	c7.559-1.156,14.686-4.262,20.679-9.012c-0.344,4.408-0.44,9.368-0.336,14.672c-4.195-3.372-9.41-5.219-14.792-5.24
	c-13.255,0-24,10.745-24,24c-13.255,0-24,10.745-24,24s10.745,24,24,24c4.134-0.024,8.191-1.127,11.768-3.2
	c2.83,4.45,7.048,7.843,12,9.656c-9.763,8.899-10.464,24.028-1.565,33.792s24.028,10.464,33.792,1.565
	c1.089-0.993,2.085-2.085,2.973-3.261c8.871,27.824,26.752,51.904,50.824,68.44c5.153,3.522,10.654,6.506,16.416,8.904
	c11.3,4.227,23.297,6.282,35.36,6.056c23.879,0.48,47.335-6.341,67.232-19.552c8.493-6.857,15.636-15.234,21.064-24.704
	c0.661-0.162,1.298-0.41,1.896-0.736c77.841-41.89,106.985-138.95,65.096-216.791c-1.92-3.568-3.975-7.061-6.16-10.473
	c-0.719-1.079-1.699-1.96-2.848-2.56c-9.363-34.165-32.887-62.696-64.64-78.4c-26.64-11.816-75.504-14.576-103.04,0.272
	c-5.632,3.063-11.091,6.433-16.352,10.096c-5.586-19.672-16.881-37.245-32.456-50.496C269.714-14.136,400.462,40.821,447.21,155.36
	s-8.209,245.288-122.748,292.036C297.588,458.364,268.839,464.004,239.814,464.004L239.814,464.004z M71.814,280.004
	c0,4.418-3.582,8-8,8s-8-3.582-8-8s3.582-8,8-8S71.814,275.585,71.814,280.004z"/>
<path d="M295.814,156.692l-36.688-36.688l10.344-10.344c3.07-3.178,2.982-8.242-0.196-11.312c-3.1-2.995-8.016-2.995-11.116,0
	l-10.344,10.344L237.47,98.348c-3.178-3.069-8.243-2.981-11.312,0.197c-2.994,3.1-2.994,8.015,0,11.115l10.344,10.344
	l-36.688,36.688l-18.344-18.344c-3.178-3.069-8.243-2.981-11.312,0.197c-2.994,3.1-2.994,8.015,0,11.115l18.344,18.344
	l-36.688,36.688l-10.344-10.344c-3.178-3.069-8.243-2.981-11.312,0.197c-2.994,3.1-2.994,8.015,0,11.115l10.344,10.344l-2.344,2.344
	c-3.178,3.069-3.266,8.134-0.197,11.312c3.069,3.178,8.134,3.266,11.312,0.197c0.067-0.064,0.132-0.13,0.197-0.197l2.344-2.344
	l36.688,36.688l-36.688,36.688l-2.344-2.344c-3.178-3.069-8.243-2.982-11.312,0.196c-2.994,3.1-2.994,8.015,0,11.116l2.344,2.344
	l-2.344,2.344c-3.178,3.069-3.266,8.134-0.196,11.312c3.069,3.178,8.134,3.266,11.312,0.196c0.067-0.064,0.132-0.13,0.196-0.196
	l2.344-2.344l36.688,36.688l-2.344,2.344c-3.178,3.069-3.266,8.134-0.196,11.312c3.069,3.178,8.134,3.266,11.312,0.196
	c0.067-0.064,0.132-0.13,0.196-0.196l2.344-2.344l26.344,26.344c3.178,3.069,8.243,2.982,11.312-0.196
	c2.994-3.1,2.994-8.015,0-11.116l-26.344-26.344l36.688-36.688l34.344,34.344c3.178,3.07,8.242,2.982,11.312-0.196
	c2.995-3.1,2.995-8.016,0-11.116l-34.344-34.344l36.688-36.688l2.344,2.344c3.178,3.07,8.242,2.982,11.312-0.196
	c2.995-3.1,2.995-8.016,0-11.116l-2.344-2.344l2.344-2.344c3.07-3.178,2.982-8.242-0.196-11.312c-3.1-2.995-8.016-2.995-11.116,0
	l-2.344,2.344l-36.688-36.688l36.688-36.688l34.344,34.344c3.178,3.07,8.242,2.982,11.312-0.196c2.994-3.1,2.994-8.015,0-11.116
	l-34.344-34.344l26.344-26.344c3.069-3.178,2.982-8.243-0.196-11.312c-3.1-2.994-8.015-2.994-11.116,0L295.814,156.692z
	 M163.126,216.004l36.688-36.688l36.688,36.688l-36.688,36.688L163.126,216.004z M199.814,348.692l-36.688-36.688l36.688-36.688
	l36.688,36.688L199.814,348.692z M284.502,264.004l-36.688,36.688l-36.688-36.688l36.688-36.688L284.502,264.004z M247.814,204.692
	l-36.688-36.688l36.688-36.688l36.688,36.688L247.814,204.692z"/>
<g>
</g>
<g>
</g>
<g>
</g>
<g>
</g>
<g>
</g>
<g>
</g>
<g>
</g>
<g>
</g>
<g>
</g>
<g>
</g>
<g>
</g>
<g>
</g>
<g>
</g>
<g>
</g>
<g>
</g>
</svg>
