<svg height="480pt" viewBox="-20 0 480 480.00053" width="480pt" xmlns="http://www.w3.org/2000/svg"><path d="m248 72c8.835938 0 16-7.164062 16-16s-7.164062-16-16-16c-.785156.019531-1.570312.097656-2.34375.242188 3.535156-5.792969 3.035156-13.1875-1.253906-18.445313-4.285156-5.261719-11.425782-7.246094-17.8125-4.949219-6.386719 2.292969-10.628906 8.367188-10.589844 15.152344-.707031.023438-1.410156.097656-2.105469.214844-3.523437-6.371094-10.917969-9.546875-17.96875-7.710938-7.046875 1.835938-11.957031 8.214844-11.925781 15.496094-8.835938 0-16 7.164062-16 16s7.164062 16 16 16zm0 0" fill="#e6e6e6"/><path d="m152 424h96v48h-96zm0 0" fill="#557c3e"/><path d="m344 280c13.253906 0 24-10.746094 24-24s-10.746094-24-24-24c-.519531 0-1.007812.121094-1.519531.152344.980469-2.605469 1.496093-5.367188 1.519531-8.152344 0-13.253906-10.746094-24-24-24 0-13.253906-10.746094-24-24-24-4.132812.027344-8.183594 1.128906-11.757812 3.199219-6.746094-10.882813-20.929688-14.429688-32-8-1.230469-1.910157-2.722657-3.640625-4.433594-5.132813-.667969-9.097656-6.472656-17.015625-14.945313-20.382812-8.476562-3.371094-18.132812-1.605469-24.863281 4.550781-5.925781-5.421875-14.191406-7.484375-21.96875-5.488281-7.78125 2-14.027344 7.792968-16.605469 15.398437-.480469 0-.9375-.144531-1.425781-.144531-8.222656.007812-15.863281 4.238281-20.238281 11.199219-11.074219-6.429688-25.257813-2.882813-32 8-3.578125-2.070313-7.628907-3.171875-11.761719-3.199219-13.253906 0-24 10.746094-24 24-13.253906 0-24 10.746094-24 24 .023438 2.785156.539062 5.546875 1.519531 8.152344-.511719 0-1-.152344-1.519531-.152344-13.253906 0-24 10.746094-24 24s10.746094 24 24 24zm0 0" fill="#e6e6e6"/><g fill="#f2f2f2"><path d="m112 232h-16c0-17.671875 14.328125-32 32-32v16c-8.835938 0-16 7.164062-16 16zm0 0"/><path d="m224 232h-16c0-8.835938-7.164062-16-16-16v-16c17.671875 0 32 14.328125 32 32zm0 0"/><path d="m312 240h-16c0-8.835938-7.164062-16-16-16v-16c17.671875 0 32 14.328125 32 32zm0 0"/><path d="m264 240h-16c0-17.671875 14.328125-32 32-32v16c-8.835938 0-16 7.164062-16 16zm0 0"/></g><path d="m296 320v-16h91.375c3.066406-13.113281 4.617188-26.535156 4.625-40h-384c0 97.203125 78.796875 176 176 176h32c62.875.015625 120.976562-33.535156 152.390625-88h-104.390625v-16h112.59375c2.335938-5.210938 4.417969-10.542969 6.253906-16zm0 0" fill="#a9c358"/><path d="m296 320h86.847656c1.75-5.230469 3.257813-10.566406 4.527344-16h-91.375zm0 0" fill="#557c3e"/><path d="m264 352h104.390625c3.007813-5.1875 5.746094-10.527344 8.203125-16h-112.59375zm0 0" fill="#557c3e"/><path d="m440 40h-29.726562c-42.4375 0-83.132813 16.859375-113.136719 46.863281l-15.761719 15.761719c-6 6.003906-14.140625 9.375-22.628906 9.375h-65.777344c-10.867188 0-21.285156-4.316406-28.96875-12s-12-18.101562-12-28.96875v-7.03125h113.375c4.246094 0 8.3125-1.6875 11.3125-4.6875 32.855469-32.855469 77.417969-51.3125 123.878906-51.3125h39.433594" fill="#f8cf26"/><path d="m184 416c-70.789062-.410156-132.070312-49.289062-148.214844-118.214844l15.597656-3.570312c14.4375 61.679687 69.273438 105.417968 132.617188 105.785156zm0 0" fill="#557c3e"/><path d="m96 232h16c0-8.835938 7.164062-16 16-16v-16c-17.671875 0-32 14.328125-32 32zm0 0"/><path d="m192 200v16c8.835938 0 16 7.164062 16 16h16c0-17.671875-14.328125-32-32-32zm0 0"/><path d="m280 208c-17.671875 0-32 14.328125-32 32h16c0-8.835938 7.164062-16 16-16s16 7.164062 16 16h16c0-17.671875-14.328125-32-32-32zm0 0"/><path d="m282.34375 64.96875c31.289062-31.457031 73.859375-49.085938 118.222656-48.96875h39.433594v-16h-39.433594c-48.261718-.117188-94.589844 18.945312-128.796875 52.992188-1.132812-9.007813-7.25-16.605469-15.808593-19.632813.039062-.453125.039062-.902344.039062-1.359375-.003906-10.667969-7.050781-20.050781-17.296875-23.03125-10.242187-2.980469-21.222656 1.160156-26.949219 10.160156-3.582031-2.046875-7.632812-3.125-11.753906-3.128906-10.570312 0-19.898438 6.917969-22.96875 17.03125-10.113281 3.070312-17.03125 12.398438-17.03125 22.96875h-8c-4.417969 0-8 3.582031-8 8v7.03125c.003906 27.042969 21.925781 48.964844 48.96875 48.96875h65.777344c10.613281.027344 20.792968-4.195312 28.277344-11.71875l15.769531-15.769531c28.449219-28.589844 67.148437-44.617188 107.480469-44.511719h29.726562v-16h-29.726562c-44.578126-.117188-87.351563 17.597656-118.792969 49.199219l-15.769531 15.769531c-4.507813 4.488281-10.605469 7.015625-16.964844 7.03125h-65.777344c-8.738281-.027344-17.113281-3.496094-23.3125-9.65625-5.972656-5.929688-9.429688-13.929688-9.65625-22.34375h105.367188c6.371093.019531 12.488281-2.511719 16.976562-7.03125zm-98.34375-16.96875c4.417969 0 8-3.582031 8-8s3.582031-8 8-8c2.890625.003906 5.542969 1.589844 6.921875 4.128906 1.609375 2.855469 4.796875 4.441406 8.046875 4l1.03125-.128906c4.417969 0 8-3.582031 8-8s3.582031-8 8-8 8 3.582031 8 8c-.011719 1.449219-.421875 2.867188-1.191406 4.097656-1.554688 2.664063-1.433594 5.984375.304687 8.535156 1.773438 2.566407 4.84375 3.917969 7.933594 3.488282 2.261719-.273438 4.53125.433594 6.238281 1.9375 1.710938 1.503906 2.695313 3.664062 2.714844 5.941406h-80c0-4.417969 3.582031-8 8-8zm0 0"/><path d="m184 400c-63.34375-.367188-118.179688-44.105469-132.617188-105.785156l-15.597656 3.570312c16.144532 68.925782 77.425782 117.804688 148.214844 118.214844zm0 0"/><path d="m256 472v-28.429688c84.074219-18.835937 143.878906-93.410156 144-179.570312 0-4.417969-3.582031-8-8-8h-16c-.015625-14.585938-9.878906-27.324219-24-30.992188 0-.335937 0-.671874 0-1.007812-.011719-14.898438-10.285156-27.828125-24.800781-31.199219-3.371094-14.511719-16.300781-24.789062-31.199219-24.800781-3.171875 0-6.328125.488281-9.351562 1.457031-8.210938-8.246093-20.261719-11.375-31.449219-8.167969-3.199219-14.691406-16.164063-25.199218-31.199219-25.289062-5.625.003906-11.152344 1.511719-16 4.367188-4.847656-2.855469-10.371094-4.363282-16-4.367188-11.488281.023438-22.074219 6.21875-27.726562 16.214844-7.175782.835937-13.851563 4.09375-18.921876 9.242187-11.324218-3.460937-23.632812-.382812-32 8-3.023437-.96875-6.175781-1.457031-9.351562-1.457031-14.898438.011719-27.828125 10.289062-31.199219 24.800781-14.511719 3.371094-24.789062 16.300781-24.800781 31.199219v1.007812c-14.121094 3.667969-23.984375 16.40625-24 30.992188h-16c-4.417969 0-8 3.582031-8 8 .121094 86.160156 59.925781 160.734375 144 179.570312v28.429688c0 4.417969 3.582031 8 8 8h96c4.417969 0 8-3.582031 8-8zm-200.214844-232 1.109375.128906c2.707031.210938 5.335938-.96875 6.984375-3.128906 1.644532-2.160156 2.082032-5.003906 1.160156-7.558594-.664062-1.738281-1.015624-3.582031-1.039062-5.441406 0-8.835938 7.164062-16 16-16 4.417969 0 8-3.582031 8-8 0-8.835938 7.164062-16 16-16 2.746094.023438 5.441406.769531 7.808594 2.160156 3.710937 2.109375 8.425781.933594 10.710937-2.671875 4.507813-7.214843 13.914063-9.570312 21.289063-5.328125 3.710937 2.109375 8.425781.933594 10.710937-2.671875 2.828125-4.578125 7.796875-7.398437 13.175781-7.488281l1.335938.136719c3.546875.175781 6.785156-2.007813 7.953125-5.359375 2.214844-6.414063 8.230469-10.730469 15.015625-10.777344 3.945312.011719 7.746094 1.496094 10.648438 4.167969 3.042968 2.738281 7.660156 2.738281 10.703124 0 4.476563-4.113281 10.910157-5.296875 16.558594-3.046875 5.644532 2.25 9.5 7.535156 9.921875 13.597656.167969 2.070312 1.132813 3.992188 2.6875 5.363281 1.144531.988281 2.140625 2.136719 2.960938 3.40625 2.285156 3.605469 7 4.78125 10.710937 2.671875 7.375-4.242187 16.78125-1.886718 21.289063 5.328125 2.285156 3.605469 7 4.78125 10.710937 2.671875 2.371094-1.390625 5.0625-2.136718 7.808594-2.160156 8.835938 0 16 7.164062 16 16 0 4.417969 3.582031 8 8 8 8.835938 0 16 7.164062 16 16-.023438 1.859375-.375 3.703125-1.039062 5.441406-.921876 2.554688-.488282 5.402344 1.15625 7.5625 1.644531 2.160156 4.273437 3.339844 6.980468 3.132813.167969 0 .734375-.113281.902344-.136719 8.835938 0 16 7.164062 16 16h-320c0-8.753906 7.03125-15.882812 15.785156-16zm-39.601562 32h367.632812c-.511718 10.792969-2.070312 21.507812-4.648437 32h-83.167969v16h78.398438c-1.949219 5.445312-4.179688 10.785156-6.6875 16h-103.710938v16h94.894531c-30.519531 49.660156-84.605469 79.9375-142.894531 80h-32c-89.632812-.101562-163.441406-70.472656-167.816406-160zm223.816406 192h-80v-16h80zm0 0"/></svg>