<?xml version="1.0" encoding="iso-8859-1"?>
<!-- Generator: Adobe Illustrator 19.0.0, SVG Export Plug-In . SVG Version: 6.00 Build 0)  -->
<svg version="1.1" id="Capa_1" xmlns="http://www.w3.org/2000/svg" xmlns:xlink="http://www.w3.org/1999/xlink" x="0px" y="0px"
	 viewBox="0 0 512 512" style="enable-background:new 0 0 512 512;" xml:space="preserve">
<path style="fill:#75462E;" d="M264.828,94.897h-17.655V75.034c0.026-24.364,19.774-44.111,44.138-44.138v17.655
	c-14.627,0-26.483,11.855-26.483,26.483V94.897z"/>
<path style="fill:#FDB62F;" d="M441.379,145.655H70.621c-19.5,0-35.31,15.81-35.31,35.31s15.81,35.31,35.31,35.31h370.759
	c19.5,0,35.31-15.81,35.31-35.31S460.879,145.655,441.379,145.655z"/>
<path style="fill:#FFA83D;" d="M441.379,216.276H70.621c-19.5,0-35.31,15.81-35.31,35.31s15.81,35.31,35.31,35.31h370.759
	c19.5,0,35.31-15.81,35.31-35.31S460.879,216.276,441.379,216.276z"/>
<path style="fill:#FDB62F;" d="M370.759,286.897h70.621c19.5,0,35.31,15.81,35.31,35.31l0,0c0,19.5-15.81,35.31-35.31,35.31H70.621
	c-19.5,0-35.31-15.81-35.31-35.31l0,0c0-19.5,15.81-35.31,35.31-35.31h264.828"/>
<path style="fill:#FFA83D;" d="M70.621,357.517h370.759c19.5,0,35.31,15.81,35.31,35.31l0,0c0,19.5-15.81,35.31-35.31,35.31H70.621
	c-19.5,0-35.31-15.81-35.31-35.31l0,0C35.31,373.327,51.121,357.517,70.621,357.517z"/>
<circle style="fill:#DE4C3C;" cx="256" cy="110.345" r="35.31"/>
<path style="fill:#E5E5E5;" d="M449.474,481.103H62.526c-30.985,0-57.432-22.404-62.526-52.966h512
	C506.906,458.699,480.459,481.103,449.474,481.103z"/>
<path style="fill:#75462E;" d="M263.353,147.103l1.474,86.828c0,9.754,7.901,17.655,17.655,17.655s17.655-7.901,17.655-17.655l0,0
	c0-9.754,7.901-17.655,17.655-17.655c9.754,0,17.655,7.901,17.655,17.655v70.621c0,9.754,7.901,17.655,17.655,17.655
	s17.655-7.901,17.655-17.655V147.103"/>
<path style="fill:#DEDEDE;" d="M387.09,428.138c-37.429,23.322-78.009,41.154-120.497,52.966h182.881
	c30.985,0,57.432-22.404,62.526-52.966H387.09z"/>
<g>
</g>
<g>
</g>
<g>
</g>
<g>
</g>
<g>
</g>
<g>
</g>
<g>
</g>
<g>
</g>
<g>
</g>
<g>
</g>
<g>
</g>
<g>
</g>
<g>
</g>
<g>
</g>
<g>
</g>
</svg>
